<svg xmlns="http://www.w3.org/2000/svg" xmlns:xlink="http://www.w3.org/1999/xlink" width="137.137" height="192.068" viewBox="0 0 137.137 192.068"><defs><style>.a{fill:#fff;}.b{fill:url(#a);}.c{fill:url(#b);}.d{fill:url(#c);}.e{fill:url(#d);}.f{fill:url(#e);}.g{fill:url(#f);}.h{fill:url(#g);}</style><linearGradient id="a" x1="0.5" y1="3.507" x2="0.5" y2="0.485" gradientUnits="objectBoundingBox"><stop offset="0" stop-color="#00afdc"/><stop offset="1" stop-color="#90278e"/></linearGradient><linearGradient id="b" x1="0.5" y1="1.134" x2="0.5" y2="-1.538" xlink:href="#a"/><linearGradient id="c" x1="0.5" y1="6.916" x2="0.5" y2="-0.263" xlink:href="#a"/><linearGradient id="d" x1="0.5" y1="10.066" x2="0.5" y2="-2.398" xlink:href="#a"/><linearGradient id="e" x1="0.5" y1="1.993" x2="0.5" y2="-0.115" xlink:href="#a"/><linearGradient id="f" x1="0.5" y1="3.364" x2="0.5" y2="-3.934" xlink:href="#a"/><linearGradient id="g" x1="0.5" y1="9.757" x2="0.5" y2="-2.284" xlink:href="#a"/></defs><g transform="translate(-374.56 -887.394)"><g transform="translate(392.16 906.823)"><path class="a" d="M523.754,940.8v16.54a17.124,17.124,0,0,1-5.473,12.554v21.138a4.293,4.293,0,0,1-3.582,4.226,6.261,6.261,0,0,1,1.049,3.474v4.9a6.3,6.3,0,0,1-6.06,6.284,40.419,40.419,0,0,1-29.1,37.12v3.623a47.818,47.818,0,0,1,37.695,46.56v13.739a1.238,1.238,0,0,1-1.239,1.24H424.3a1.241,1.241,0,0,1-1.239-1.24v-13.739a47.773,47.773,0,0,1,35.431-46.01v-4.085a40.4,40.4,0,0,1-29.412-37.278,6.216,6.216,0,0,1-.963.083,6.3,6.3,0,0,1-6.3-6.3v-4.9a6.291,6.291,0,0,1,2.247-4.816,2.827,2.827,0,0,1-1.136-2.26V961.405a1.282,1.282,0,0,1,.066-.392c1.975-5.92,7.477-6.514,11.116-5.849a17.19,17.19,0,0,1,17.094-15.6h71.308A1.237,1.237,0,0,1,523.754,940.8Zm-2.479,16.54v-15.3H451.207a14.7,14.7,0,0,0-14.685,14.686,1.238,1.238,0,0,1-1.623,1.177c-.3-.095-7.333-2.28-9.489,3.706V991.66a.356.356,0,0,0,.351.351h7.931a.351.351,0,0,0,.351-.351V981.233a9.211,9.211,0,0,1,9.2-9.2H506.59A14.7,14.7,0,0,0,521.276,957.344ZM515.8,1109.725v-12.5a45.321,45.321,0,0,0-35.216-44.015v6.58a11.048,11.048,0,1,1-22.1,0v-6.01a45.045,45.045,0,0,0-32.952,43.445v12.5Zm0-118.689V971.815a16.988,16.988,0,0,1-6.081,2.4v18.238a6.211,6.211,0,0,1,1.945.4h2.322A1.816,1.816,0,0,0,515.8,991.036Zm-2.532,12.6v-4.9a3.815,3.815,0,0,0-2.107-3.408h-1.442v12.116A3.823,3.823,0,0,0,513.27,1003.639Zm-6.027,4.652v-33.8c-.215.008-.434.016-.653.016H443.243a6.73,6.73,0,0,0-6.721,6.725V991.66a2.831,2.831,0,0,1-2.83,2.83H432.61a1.229,1.229,0,0,1-1.086,1.69v12.112a37.924,37.924,0,0,0,27.557,36.435,1.22,1.22,0,0,1,1.723.442,37.883,37.883,0,0,0,46.44-36.877Zm-29.135,51.5v-12.12a40.425,40.425,0,0,1-17.139.07v12.05a8.57,8.57,0,1,0,17.139,0Zm-49.063-52.45V995.035a3.915,3.915,0,0,0-.93-.12,3.825,3.825,0,0,0-3.817,3.821v4.9a3.814,3.814,0,0,0,4.746,3.7Z" transform="translate(-421.82 -939.565)"/><path class="b" d="M527.325,946.22v15.3a14.7,14.7,0,0,1-14.685,14.686H449.292a9.211,9.211,0,0,0-9.2,9.2v10.427a.351.351,0,0,1-.351.351H431.81a.356.356,0,0,1-.351-.351V965.788c2.156-5.986,9.191-3.8,9.489-3.706a1.238,1.238,0,0,0,1.623-1.177,14.7,14.7,0,0,1,14.685-14.685Z" transform="translate(-427.869 -943.742)"/><path class="c" d="M522.068,1288.736v12.5H431.8v-12.5a45.045,45.045,0,0,1,32.952-43.445v6.01a11.048,11.048,0,1,0,22.1,0v-6.58A45.321,45.321,0,0,1,522.068,1288.736Z" transform="translate(-428.085 -1131.076)"/><path class="d" d="M663.931,1026.161v19.221a1.816,1.816,0,0,1-1.814,1.814H659.8a6.207,6.207,0,0,0-1.946-.4v-18.238A16.984,16.984,0,0,0,663.931,1026.161Z" transform="translate(-569.948 -993.911)"/><path class="e" d="M661.4,1092.706v4.9a3.823,3.823,0,0,1-3.548,3.8V1089.3h1.442A3.815,3.815,0,0,1,661.4,1092.706Z" transform="translate(-569.948 -1033.535)"/><path class="f" d="M523.595,1033.349v33.8a37.882,37.882,0,0,1-46.44,36.877,1.22,1.22,0,0,0-1.723-.442,37.924,37.924,0,0,1-27.557-36.435v-12.112a1.229,1.229,0,0,0,1.086-1.69h1.083a2.832,2.832,0,0,0,2.83-2.83v-10.426a6.73,6.73,0,0,1,6.721-6.725h63.347C523.161,1033.365,523.38,1033.357,523.595,1033.349Zm-18.1,22.286a3.286,3.286,0,1,0-3.288,3.288A3.285,3.285,0,0,0,505.493,1055.635Zm-7.019,28.974a1.24,1.24,0,0,0-1.756-1.751c-9.968,9.968-19.816.421-20.242,0a1.238,1.238,0,0,0-1.751,1.751c.079.079,5.366,5.242,12.347,5.242C490.593,1089.852,494.542,1088.542,498.475,1084.609ZM491,1075.075a1.238,1.238,0,0,0,1.239-1.239,4.538,4.538,0,0,0-9.075,0,1.239,1.239,0,1,0,2.478,0,2.059,2.059,0,0,1,4.119,0A1.24,1.24,0,0,0,491,1075.075Zm-16.594-19.44a3.286,3.286,0,1,0-3.284,3.288A3.285,3.285,0,0,0,474.4,1055.635Z" transform="translate(-438.172 -998.422)"/><path class="a" d="M588.225,1084.373a3.286,3.286,0,1,1-3.284,3.284A3.285,3.285,0,0,1,588.225,1084.373Z" transform="translate(-524.192 -1030.444)"/><path class="a" d="M543.112,1165.678a1.239,1.239,0,0,1,0,1.751c-3.933,3.933-7.882,5.242-11.4,5.242-6.981,0-12.269-5.164-12.347-5.242a1.238,1.238,0,0,1,1.751-1.751c.426.421,10.274,9.968,20.242,0A1.244,1.244,0,0,1,543.112,1165.678Z" transform="translate(-482.809 -1081.242)"/><path class="g" d="M544.079,1229.847v12.12a8.57,8.57,0,1,1-17.139,0v-12.05a40.422,40.422,0,0,0,17.139-.07Z" transform="translate(-487.792 -1121.741)"/><path class="a" d="M551.7,1134.42a1.239,1.239,0,1,1-2.479,0,2.059,2.059,0,0,0-4.118,0,1.239,1.239,0,1,1-2.478,0,4.538,4.538,0,0,1,9.075,0Z" transform="translate(-497.635 -1059.006)"/><path class="a" d="M504.749,1084.373a3.286,3.286,0,1,1-3.288,3.284A3.285,3.285,0,0,1,504.749,1084.373Z" transform="translate(-471.801 -1030.444)"/><path class="h" d="M433.221,1088.309v12.306a3.814,3.814,0,0,1-4.746-3.7v-4.9a3.825,3.825,0,0,1,3.817-3.821A3.915,3.915,0,0,1,433.221,1088.309Z" transform="translate(-425.997 -1032.839)"/></g><g transform="translate(499.676 887.394)"><path class="a" d="M721.032,899.415a1.5,1.5,0,0,1-1.5-1.5V890.4h-7.507a1.5,1.5,0,1,1,0-3.009h9.012a1.5,1.5,0,0,1,1.5,1.5v9.012A1.5,1.5,0,0,1,721.032,899.415Z" transform="translate(-710.516 -887.394)"/></g><g transform="translate(374.56 887.394)"><path class="a" d="M376.065,899.415a1.5,1.5,0,0,1-1.5-1.5V888.9a1.5,1.5,0,0,1,1.5-1.5h9.012a1.5,1.5,0,0,1,0,3.009h-7.507v7.507A1.5,1.5,0,0,1,376.065,899.415Z" transform="translate(-374.56 -887.394)"/></g><g transform="translate(499.676 1008.921)"><path class="a" d="M721.032,1213.713a1.5,1.5,0,0,0-1.5,1.5v7.507h-7.507a1.5,1.5,0,1,0,0,3.009h9.012a1.5,1.5,0,0,0,1.5-1.5v-9.011A1.5,1.5,0,0,0,721.032,1213.713Z" transform="translate(-710.516 -1213.713)"/></g><g transform="translate(374.56 1008.921)"><path class="a" d="M376.065,1213.713a1.5,1.5,0,0,0-1.5,1.5v9.011a1.5,1.5,0,0,0,1.5,1.5h9.012a1.5,1.5,0,0,0,0-3.009h-7.507v-7.507A1.5,1.5,0,0,0,376.065,1213.713Z" transform="translate(-374.56 -1213.713)"/></g></g></svg>