<svg xmlns="http://www.w3.org/2000/svg" xmlns:xlink="http://www.w3.org/1999/xlink" width="132.018" height="239.457" viewBox="0 0 132.018 239.457"><defs><style>.a,.ab,.ad,.ae,.af,.ai,.b,.h,.m,.o,.s,.u,.v,.w{fill:none;}.aa,.ab,.ad,.ai,.b,.c,.g,.h,.i,.m,.o,.s,.w,.y,.z{stroke:#fff;}.aa,.ae,.af,.b,.c,.g,.h,.i,.u,.y,.z{stroke-miterlimit:10;}.aa,.b,.y,.z{stroke-width:0.195px;}.c{fill:#080b13;stroke-width:1.018px;}.d{fill:#111626;}.e,.f,.l,.z{fill:#fff;}.e{font-size:7.82px;}.e,.f{font-family:Raleway-Medium, Raleway;font-weight:500;}.f{font-size:6.647px;}.g,.h,.i{stroke-width:0.717px;}.g{fill:url(#a);}.i{fill:url(#b);}.j{clip-path:url(#c);}.k{fill:#52b9e4;}.ab,.ad,.ai,.m,.o,.s,.v,.w{stroke-linejoin:round;}.m{stroke-width:0.488px;}.n{fill:gold;}.o{stroke-width:0.485px;}.p{clip-path:url(#d);}.q,.y{fill:#dd1833;}.r{fill:#006a38;}.s{stroke-width:0.505px;}.t{fill:#77200e;}.af,.u{stroke:#006a38;}.u{stroke-width:0.467px;}.v{stroke:#1a1818;}.v,.w{stroke-width:0.503px;}.x{clip-path:url(#e);}.aa,.ah{fill:#00337d;}.ab{stroke-width:0.511px;}.ac{clip-path:url(#f);}.ad{stroke-width:0.497px;}.ae{stroke:gold;}.ae,.af{stroke-width:0.475px;}.ag{clip-path:url(#g);}.ai{stroke-width:0.494px;}</style><linearGradient id="a" x1="0.5" x2="0.5" y2="1" gradientUnits="objectBoundingBox"><stop offset="0" stop-color="#00afdc"/><stop offset="1" stop-color="#90278e"/></linearGradient><linearGradient id="b" x1="0.5" x2="0.5" y2="1" gradientUnits="objectBoundingBox"><stop offset="0" stop-color="#ee4036"/><stop offset="1" stop-color="#90278e"/></linearGradient><clipPath id="c"><rect class="a" width="13.597" height="13.816" rx="4.276"/></clipPath><clipPath id="d"><path class="a" d="M392.133,3171.647h4.655a4.516,4.516,0,0,1,4.655,4.363v5.09a4.516,4.516,0,0,1-4.655,4.363h-4.655a4.516,4.516,0,0,1-4.655-4.363v-5.09A4.516,4.516,0,0,1,392.133,3171.647Z" transform="translate(-387.478 -3171.647)"/></clipPath><clipPath id="e"><rect class="b" width="14.111" height="14.338" rx="4.509"/></clipPath><clipPath id="f"><rect class="a" width="13.856" height="14.079" rx="4.357"/></clipPath><clipPath id="g"><circle class="a" cx="1.158" cy="1.158" r="1.158"/></clipPath></defs><g transform="translate(-378.432 -2973.725)"><rect class="c" width="131" height="238.439" rx="4.104" transform="translate(378.941 2974.234)"/><rect class="d" width="120.559" height="140.745" rx="3.244" transform="translate(384.162 2980.232)"/><text class="e" transform="translate(407.173 2988.351)"><tspan x="0" y="7">Chile</tspan></text><text class="e" transform="translate(407.173 3134.689)"><tspan x="0" y="7">Perú</tspan></text><text class="e" transform="translate(407.173 3159.111)"><tspan x="0" y="7">Argentina</tspan></text><text class="e" transform="translate(407.173 3184.648)"><tspan x="0" y="7">México</tspan></text><text class="f" transform="translate(412.931 3005.468)"><tspan x="0" y="6">01</tspan></text><g transform="translate(413.763 3014.738)"><path class="g" d="M470.122,3050.725H413.432a1.376,1.376,0,0,1-1.375-1.375v-35.219a1.376,1.376,0,0,1,1.375-1.377h56.689a1.376,1.376,0,0,1,1.375,1.377v35.224A1.372,1.372,0,0,1,470.122,3050.725Z" transform="translate(-412.057 -3012.754)"/><line class="h" x2="24.765" transform="translate(25.934 13.016)"/><line class="h" x2="24.765" transform="translate(25.934 19.718)"/><line class="h" x2="24.765" transform="translate(25.934 23.069)"/><line class="h" x2="24.765" transform="translate(25.934 26.416)"/><g transform="translate(7.415 8.851)"><path class="h" d="M423.133,3032.808a5.117,5.117,0,0,0-3.892,4.946v1.511h10.184v-1.511a5.114,5.114,0,0,0-4.068-4.988" transform="translate(-419.102 -3020.573)"/><path class="h" d="M425.1,3032.174v1.5a1.076,1.076,0,0,1-1.077,1.077h0a1.075,1.075,0,0,1-1.076-1.077v-1.541" transform="translate(-418.911 -3020.606)"/><path class="h" d="M419.9,3028.294a.55.55,0,0,1-.236.05h0a.557.557,0,0,1-.557-.557v-.54a.556.556,0,0,1,.557-.556h0a.546.546,0,0,1,.367.139" transform="translate(-419.109 -3020.886)"/><path class="h" d="M428.135,3026.7h0a.556.556,0,0,1,.557.556v.536a.557.557,0,0,1-.557.557" transform="translate(-418.644 -3020.886)"/><path class="h" d="M428.456,3024.554v3.858a4.29,4.29,0,0,1-4.292,4.292h0a4.291,4.291,0,0,1-4.292-4.292v-1.625" transform="translate(-419.07 -3020.997)"/><path class="h" d="M430.029,3021.175v1.815a1.744,1.744,0,0,1-1.748,1.747h-6.959a.876.876,0,0,0-.874.874v1.144a.173.173,0,0,1-.172.173h-.87a.173.173,0,0,1-.174-.173v-3.322c.274-.822,1.22-.514,1.22-.514a1.748,1.748,0,0,1,1.748-1.748h7.829v0Z" transform="translate(-419.103 -3021.171)"/><path class="h" d="M428.971,3024.157v2.38a.334.334,0,0,1-.333.333h-.5" transform="translate(-418.644 -3021.017)"/></g></g><text class="f" transform="translate(412.931 3057.765)"><tspan x="0" y="6">02</tspan></text><g transform="translate(413.763 3067.036)"><path class="i" d="M470.122,3100.46H413.432a1.376,1.376,0,0,1-1.375-1.376v-35.219a1.376,1.376,0,0,1,1.375-1.375h56.689a1.376,1.376,0,0,1,1.375,1.375v35.223A1.373,1.373,0,0,1,470.122,3100.46Z" transform="translate(-412.057 -3062.489)"/><line class="h" x2="24.765" transform="translate(25.934 13.016)"/><line class="h" x2="24.765" transform="translate(25.934 19.717)"/><line class="h" x2="24.765" transform="translate(25.934 23.069)"/><line class="h" x2="24.765" transform="translate(25.934 26.415)"/><g transform="translate(7.415 8.85)"><path class="h" d="M423.133,3082.543a5.117,5.117,0,0,0-3.892,4.947V3089h10.184v-1.511a5.112,5.112,0,0,0-4.068-4.989" transform="translate(-419.102 -3070.308)"/><path class="h" d="M425.1,3081.909v1.5a1.075,1.075,0,0,1-1.077,1.076h0a1.074,1.074,0,0,1-1.076-1.076v-1.54" transform="translate(-418.911 -3070.34)"/><path class="h" d="M419.9,3078.028a.551.551,0,0,1-.236.052h0a.557.557,0,0,1-.557-.557v-.541a.557.557,0,0,1,.557-.557h0a.542.542,0,0,1,.367.14" transform="translate(-419.109 -3070.621)"/><path class="h" d="M428.135,3076.432h0a.557.557,0,0,1,.557.557v.536a.557.557,0,0,1-.557.557" transform="translate(-418.644 -3070.62)"/><path class="h" d="M428.456,3074.289v3.857a4.29,4.29,0,0,1-4.292,4.292h0a4.291,4.291,0,0,1-4.292-4.292v-1.625" transform="translate(-419.07 -3070.731)"/><path class="h" d="M430.029,3070.909v1.815a1.746,1.746,0,0,1-1.748,1.748h-6.959a.875.875,0,0,0-.874.874v1.143a.173.173,0,0,1-.172.173h-.87a.174.174,0,0,1-.174-.173v-3.321c.274-.823,1.22-.515,1.22-.515a1.749,1.749,0,0,1,1.748-1.748h7.829v0Z" transform="translate(-419.103 -3070.905)"/><path class="h" d="M428.971,3073.892v2.38a.333.333,0,0,1-.333.333h-.5" transform="translate(-418.644 -3070.751)"/></g></g><g transform="translate(388.028 3156.28)"><g class="j"><g transform="translate(-0.11)"><path class="k" d="M401.295,3156.12v4.605H387.478v-4.605h13.817Z" transform="translate(-387.478 -3146.91)"/><path class="l" d="M401.295,3151.742v4.606H387.478v-4.6h13.816Z" transform="translate(-387.478 -3147.135)"/><path class="k" d="M401.295,3147.361v4.606H387.478v-4.606Z" transform="translate(-387.478 -3147.361)"/><path class="m" d="M401.295,3156.571v4.605H387.478v-13.816h13.816v9.21Z" transform="translate(-387.478 -3147.361)"/><line class="m" x2="13.594" transform="translate(0.111 4.606)"/><line class="m" x2="13.594" transform="translate(0.111 9.21)"/><path class="n" d="M394.069,3153.276l.465-.678-.022.824.775-.275-.5.652.789.232-.789.232.5.652-.775-.276.022.824-.465-.678-.465.678.023-.824-.775.276.5-.652-.79-.232.79-.232-.5-.652.775.275-.023-.824Z" transform="translate(-387.216 -3147.091)"/></g></g><rect class="o" width="13.597" height="13.816" rx="4.276"/></g><g transform="translate(387.918 3181.817)"><g class="p"><g transform="translate(-0.776 0)"><g transform="translate(0.377 0.314)"><path class="q" d="M400.867,3171.946v13.37h-4.142v-13.37Z" transform="translate(-386.602 -3171.946)"/><path class="l" d="M397.018,3185.1v.218h-5.983v-13.372h5.983Z" transform="translate(-386.895 -3171.946)"/><path class="r" d="M391.239,3185.1v.218H387.1v-13.372h4.141Z" transform="translate(-387.098 -3171.946)"/></g><rect class="a" width="14.742" height="13.816"/><line class="s" y2="13.89" transform="translate(4.518)"/><line class="s" y2="13.89" transform="translate(10.501)"/><g transform="translate(5.556 6.116)"><ellipse class="t" cx="1.173" cy="1.099" rx="1.173" ry="1.099" transform="translate(0.779)"/><path class="u" d="M395.549,3177.468a1.758,1.758,0,0,1-.4,2.564,2.042,2.042,0,0,1-2.737-.374,1.74,1.74,0,0,1-.043-2.133" transform="translate(-392.024 -3177.463)"/></g></g></g><path class="v" d="M392.133,3171.647h4.655a4.516,4.516,0,0,1,4.655,4.363v5.09a4.516,4.516,0,0,1-4.655,4.363h-4.655a4.516,4.516,0,0,1-4.655-4.363v-5.09A4.516,4.516,0,0,1,392.133,3171.647Z" transform="translate(-387.478 -3171.647)"/><path class="w" d="M392.133,3171.647h4.655a4.516,4.516,0,0,1,4.655,4.363v5.09a4.516,4.516,0,0,1-4.655,4.363h-4.655a4.516,4.516,0,0,1-4.655-4.363v-5.09A4.516,4.516,0,0,1,392.133,3171.647Z" transform="translate(-387.478 -3171.647)"/></g><g transform="translate(387.786 2984.883)"><g transform="translate(0.114)"><g class="x"><g transform="translate(-0.003 0)"><path class="y" d="M394.517,2991.179h7.056v7.169H387.458v-7.169Z" transform="translate(-387.458 -2984.01)"/><path class="z" d="M401.225,2984.361v7.169h-7.056v-7.169Z" transform="translate(-387.112 -2984.361)"/><path class="aa" d="M394.517,2984.477v7.053h-7.059v-7.169h7.056Zm-2.939,3.583.706-.7-.975-.143-.434-.895-.434.895-.973.143.7.7-.166.986.87-.465.87.465Z" transform="translate(-387.458 -2984.361)"/><path class="z" d="M392.185,2987.269l-.706.7.166.985-.87-.465-.87.465.166-.985-.7-.7.973-.143.434-.895.434.895Z" transform="translate(-387.36 -2984.265)"/></g></g><rect class="b" width="14.111" height="14.338" rx="4.509"/></g><line class="ab" x2="14.338" transform="translate(0 7.17)"/><line class="ab" y2="7.17" transform="translate(7.17 0.116)"/><rect class="ab" width="14.111" height="14.338" rx="4.509" transform="translate(0.114)"/></g><g transform="translate(388.028 3130.612)"><g class="ac"><g transform="translate(-0.112 -0.095)"><path class="q" d="M401.065,3122.86v14.079h-4.088V3122.86Z" transform="translate(-386.987 -3122.86)"/><path class="l" d="M397.266,3136.712v.229h-5.9V3122.86h5.9v13.852Zm-1.793-6.585a1.158,1.158,0,1,0-1.16,1.158h0a1.159,1.159,0,0,0,1.159-1.157Zm-.25-1.908c0-.2-.374-.364-.84-.364s-.839.163-.839.364.376.363.839.363.84-.165.84-.362Z" transform="translate(-387.276 -3122.86)"/><circle class="n" cx="1.158" cy="1.158" r="1.158" transform="translate(5.881 6.109)"/><path class="q" d="M391.563,3136.712v.229h-4.087V3122.86h4.087v13.852Z" transform="translate(-387.476 -3122.86)"/><g transform="translate(0)"><rect class="ad" width="14.079" height="14.079"/><line class="ad" y2="13.852" transform="translate(4.087 0.114)"/><line class="ad" y2="13.852" transform="translate(9.991 0.114)"/><g transform="translate(5.109 4.996)"><ellipse class="ae" cx="0.84" cy="0.363" rx="0.84" ry="0.363" transform="translate(1.159)"/><path class="af" d="M395.813,3128.675a1.93,1.93,0,1,1-3.14.06" transform="translate(-392.335 -3127.557)"/></g></g><g transform="translate(5.881 6.109)"><g class="ag"><g transform="translate(-0.205 -0.432)"><rect class="q" width="2.725" height="1.362" transform="translate(0 1.59)"/><rect class="ah" width="1.362" height="1.59"/></g></g></g></g></g><rect class="ai" width="13.856" height="14.079" rx="4.357"/></g></g></svg>