<svg xmlns="http://www.w3.org/2000/svg" xmlns:xlink="http://www.w3.org/1999/xlink" width="163.58" height="228.116" viewBox="0 0 163.58 228.116"><defs><style>.a,.b,.c{stroke:#fff;stroke-miterlimit:10;}.a,.b{stroke-width:1.667px;}.a{fill:url(#a);}.b,.c{fill:none;}.d{fill:#00afdc;}</style><linearGradient id="a" x1="0.5" x2="0.5" y2="1" gradientUnits="objectBoundingBox"><stop offset="0" stop-color="#00afdc"/><stop offset="1" stop-color="#90278e"/></linearGradient></defs><g transform="translate(-1700.671 -2974.234)"><path class="a" d="M1846.174,3077.289H1720.886a3.041,3.041,0,0,1-3.04-3.041V2996.41a3.041,3.041,0,0,1,3.04-3.041h125.287a3.042,3.042,0,0,1,3.041,3.041v77.847A3.034,3.034,0,0,1,1846.174,3077.289Z"/><line class="b" x2="54.734" transform="translate(1775.163 3022.135)"/><line class="b" x2="54.734" transform="translate(1775.163 3036.947)"/><line class="b" x2="54.734" transform="translate(1775.163 3044.353)"/><line class="b" x2="54.734" transform="translate(1775.163 3051.75)"/><path class="b" d="M1743.142,3039.969a11.307,11.307,0,0,0-8.6,10.932v3.34h22.507v-3.34a11.3,11.3,0,0,0-8.992-11.025"/><path class="b" d="M1747.908,3038.5v3.32a2.376,2.376,0,0,1-2.378,2.379h0a2.376,2.376,0,0,1-2.379-2.379v-3.4"/><path class="b" d="M1735.988,3029.3a1.234,1.234,0,0,1-.523.112h0a1.23,1.23,0,0,1-1.231-1.231v-1.194a1.23,1.23,0,0,1,1.231-1.232h0a1.2,1.2,0,0,1,.812.308"/><path class="b" d="M1755.212,3025.773h0a1.23,1.23,0,0,1,1.231,1.231v1.185a1.229,1.229,0,0,1-1.231,1.231"/><path class="b" d="M1754.978,3020.792v8.525a9.482,9.482,0,0,1-9.486,9.487h0a9.482,9.482,0,0,1-9.486-9.487v-3.591"/><path class="b" d="M1758.383,3012.938v4.011a3.858,3.858,0,0,1-3.862,3.862H1739.14a1.935,1.935,0,0,0-1.931,1.931v2.527a.384.384,0,0,1-.382.383h-1.921a.384.384,0,0,1-.383-.383v-7.34c.606-1.819,2.7-1.138,2.7-1.138a3.864,3.864,0,0,1,3.861-3.862h17.3v.009Z"/><path class="b" d="M1757.058,3019.869v5.26a.737.737,0,0,1-.736.737h-1.1"/><path class="a" d="M1847.176,3180.834H1721.7a3.046,3.046,0,0,1-3.046-3.046v-77.955a3.046,3.046,0,0,1,3.046-3.046h125.476a3.046,3.046,0,0,1,3.045,3.046V3177.8A3.037,3.037,0,0,1,1847.176,3180.834Z"/><path class="c" d="M1825.55,3106.736s6.764-4.6,14.087-.262"/><path class="c" d="M1822.879,3112.771a11.546,11.546,0,0,1,9.715-5.512,11.2,11.2,0,0,1,10.014,5.3"/><path class="c" d="M1825.027,3122.421s-3.363-6.81,2.933-11.154,16.759,3.1,12.966,9.519c-1.036,1.635-4.437.822-4.782-.906s-.552-5.531-4.737-4.139c-4.512,1.5-.728,9.043,3.27,10.379"/><path class="c" d="M1832.743,3118.039s.561,6.661,7.455,6.315"/><path class="c" d="M1830.156,3126.12s-7.277-8.791-.3-12.574c6.5-3.531,9.565,3.746,8.828,5.213"/><rect class="c" width="4.363" height="4.363" transform="translate(1725.941 3104.746)"/><rect class="c" width="2.205" height="2.205" transform="translate(1727.024 3105.821)"/><rect class="c" width="4.363" height="4.363" transform="translate(1741.943 3104.746)"/><rect class="c" width="2.205" height="2.205" transform="translate(1743.026 3105.821)"/><rect class="c" width="4.363" height="4.363" transform="translate(1725.95 3120.636)"/><rect class="c" width="2.205" height="2.205" transform="translate(1727.024 3121.711)"/><path class="c" d="M1737.8,3105.821v4.521h2.905"/><path class="c" d="M1740.71,3104.737v4.372h-1.457"/><line class="c" x2="2.373" transform="translate(1734.143 3106.465)"/><line class="c" x2="2.149" transform="translate(1732.741 3108.025)"/><path class="c" d="M1736.132,3108.511v3.017h-2.317"/><line class="c" y2="2.578" transform="translate(1732.741 3110.024)"/><path class="c" d="M1727.024,3112.6h4.2v1.784"/><line class="c" y2="2.756" transform="translate(1725.95 3114.919)"/><line class="c" x1="2.859" transform="translate(1727.454 3117.675)"/><line class="c" x2="2.933" transform="translate(1725.95 3119.291)"/><line class="c" y2="2.756" transform="translate(1731.985 3114.919)"/><line class="c" x2="2.588" transform="translate(1732.741 3113.499)"/><path class="c" d="M1734.031,3117.675h3.129v1.616"/><line class="c" x2="4.661" transform="translate(1730.313 3118.479)"/><line class="c" x2="2.989" transform="translate(1731.985 3121.122)"/><line class="c" y2="2.802" transform="translate(1735.591 3122.196)"/><path class="c" d="M1737.8,3121.711h4.148v1.887"/><line class="c" x2="2.177" transform="translate(1737.804 3123.598)"/><path class="c" d="M1741.952,3111.9h1.56v2.485"/><line class="c" y2="1.943" transform="translate(1740.71 3111.528)"/><line class="c" y2="1.971" transform="translate(1738.897 3111.528)"/><line class="c" y2="1.616" transform="translate(1737.16 3111.528)"/><path class="c" d="M1742.728,3119.291h3.587v1.831"/><line class="c" x2="2.214" transform="translate(1743.026 3120.636)"/><path class="c" d="M1743.512,3122.2v2.8h-1.186"/><line class="c" y2="1.401" transform="translate(1745.24 3122.196)"/><line class="c" x1="2.905" transform="translate(1737.804 3124.999)"/><line class="c" y2="0.944" transform="translate(1732.639 3122.654)"/><line class="c" y2="0.794" transform="translate(1734.143 3123.131)"/><line class="c" x2="2.905" transform="translate(1731.985 3124.999)"/><line class="c" x2="4.577" transform="translate(1736.132 3115.732)"/><line class="c" x2="7.09" transform="translate(1738.897 3117.675)"/><line class="c" x2="1.794" transform="translate(1744.521 3110.342)"/><path class="c" d="M1728.127,3110.342h-2.177v3.13"/><line class="c" x2="1.457" transform="translate(1739.252 3119.291)"/><line class="c" x1="3.363" transform="translate(1736.515 3120.636)"/><line class="c" x2="1.411" transform="translate(1733.479 3114.919)"/><path class="c" d="M1746.315,3112.117v4.176h-4.363v-2.831"/><rect class="b" width="116.583" height="18.87" transform="translate(1725.707 3154.546)"/><path class="d" d="M1862.9,2984.992a1.347,1.347,0,0,1-1.346-1.346v-6.719h-6.719a1.347,1.347,0,0,1,0-2.693h8.065a1.347,1.347,0,0,1,1.347,1.347v8.065A1.347,1.347,0,0,1,1862.9,2984.992Z"/><path class="d" d="M1702.018,2984.992a1.347,1.347,0,0,1-1.347-1.346v-8.065a1.347,1.347,0,0,1,1.347-1.347h8.065a1.347,1.347,0,0,1,0,2.693h-6.719v6.719A1.347,1.347,0,0,1,1702.018,2984.992Z"/><path class="d" d="M1862.9,3191.592a1.347,1.347,0,0,0-1.346,1.346v6.719h-6.719a1.347,1.347,0,0,0,0,2.693h8.065a1.347,1.347,0,0,0,1.347-1.346v-8.066A1.347,1.347,0,0,0,1862.9,3191.592Z"/><path class="d" d="M1702.018,3191.592a1.347,1.347,0,0,0-1.347,1.346V3201a1.347,1.347,0,0,0,1.347,1.346h8.065a1.347,1.347,0,0,0,0-2.693h-6.719v-6.719A1.347,1.347,0,0,0,1702.018,3191.592Z"/></g></svg>